<?xml version="1.0" standalone="no"?>
<!DOCTYPE svg PUBLIC "-//W3C//DTD SVG 20010904//EN"
 "http://www.w3.org/TR/2001/REC-SVG-20010904/DTD/svg10.dtd">
<svg version="1.0" xmlns="http://www.w3.org/2000/svg"
 width="700.000000pt" height="700.000000pt" viewBox="0 0 700.000000 700.000000"
 preserveAspectRatio="xMidYMid meet">
<metadata>
Created by potrace 1.14, written by Peter Selinger 2001-2017
</metadata>
<g transform="translate(0.000000,700.000000) scale(0.100000,-0.100000)"
fill="#000000" stroke="none">
<path d="M4906 6123 c-1 -2 -22 -5 -45 -8 -194 -24 -383 -183 -452 -380 -96
-275 28 -583 286 -710 95 -47 163 -63 270 -63 259 -1 486 176 555 431 29 105
24 240 -11 338 -83 234 -295 387 -547 393 -29 1 -54 0 -56 -1z"/>
<path d="M4005 4947 c-22 -5 -53 -19 -70 -31 -34 -23 -279 -216 -395 -311 -20
-16 -54 -43 -75 -60 -51 -40 -355 -282 -380 -303 -11 -10 -52 -42 -90 -72 -39
-30 -72 -57 -75 -60 -3 -3 -25 -21 -50 -40 -25 -19 -47 -37 -50 -40 -3 -3 -93
-76 -201 -162 -109 -86 -209 -172 -223 -190 -41 -55 -59 -108 -59 -179 -1
-120 4 -126 462 -584 l411 -410 0 -546 c0 -632 -2 -617 85 -703 142 -142 369
-108 463 69 l27 50 0 665 0 665 -22 45 c-16 32 -126 149 -362 385 -264 264
-337 342 -327 350 8 6 33 26 57 45 86 70 174 141 189 153 8 7 92 73 185 147
94 74 172 137 175 140 3 3 73 59 155 124 83 66 157 125 166 132 14 12 41 -24
232 -310 124 -186 231 -336 250 -350 18 -14 53 -34 77 -45 44 -20 62 -20 550
-18 497 2 506 2 553 24 235 109 219 450 -25 538 -49 17 -85 19 -434 19 l-382
0 -261 392 c-162 244 -275 402 -296 419 -72 54 -171 74 -260 52z"/>
<path d="M1350 2912 c-31 -2 -92 -13 -170 -28 -47 -10 -175 -57 -235 -86 -165
-82 -332 -224 -435 -369 -55 -79 -131 -221 -148 -279 -61 -206 -73 -287 -67
-458 2 -62 6 -116 9 -120 2 -4 7 -23 10 -42 12 -73 49 -188 87 -269 191 -409
592 -670 1037 -674 155 -2 240 10 377 52 60 19 199 83 265 123 107 65 251 203
332 318 83 118 166 306 184 416 3 22 8 42 10 46 7 11 18 150 17 223 -2 484
-321 927 -783 1087 -152 52 -327 74 -490 60z m270 -602 c179 -49 339 -207 397
-391 17 -55 24 -248 11 -299 -70 -269 -302 -452 -572 -451 -39 0 -82 3 -96 6
-14 3 -34 7 -45 9 -168 33 -346 198 -410 381 -66 186 -16 422 120 572 151 168
377 234 595 173z"/>
<path d="M5458 2914 c-2 -1 -28 -5 -58 -7 -285 -28 -581 -194 -775 -437 -47
-60 -115 -170 -142 -230 -34 -78 -43 -100 -57 -151 -88 -304 -62 -590 81 -874
84 -167 224 -325 383 -432 255 -171 567 -235 875 -179 25 5 72 18 189 53 11 4
51 22 90 41 336 162 576 477 647 847 14 78 18 293 6 370 -30 188 -85 328 -193
491 -165 250 -464 444 -760 493 -64 11 -279 22 -286 15z m158 -588 c125 -10
263 -83 355 -185 65 -73 92 -118 125 -216 64 -192 16 -413 -125 -567 -224
-244 -606 -255 -836 -23 -64 65 -81 89 -118 167 -78 161 -76 338 3 504 84 174
260 301 448 320 31 4 59 8 60 10 2 1 9 1 15 -1 7 -2 39 -6 73 -9z"/>
</g>
</svg>
